<?xml version="1.0" encoding="UTF-8"?>
<svg id="Camada_2" data-name="Camada 2" xmlns="http://www.w3.org/2000/svg" viewBox="0 0 51.6 51.6">
  <defs>
    <style>
      .cls-1 {
        fill: #333;
      }
    </style>
  </defs>
  <g id="_ëîé_1" data-name="‘ëîé_1">
    <path class="cls-1" d="M25.8,51.6C11.58,51.6,0,40.03,0,25.8S11.58,0,25.8,0s25.8,11.57,25.8,25.8-11.57,25.8-25.8,25.8ZM25.8,3.04C13.25,3.04,3.04,13.25,3.04,25.8s10.21,22.77,22.77,22.77,22.77-10.21,22.77-22.77S38.35,3.04,25.8,3.04Z"/>
    <path class="cls-1" d="M25.59,10.09c-.84,0-1.52-.68-1.52-1.52v-1.66c0-.84.68-1.52,1.52-1.52s1.52.68,1.52,1.52v1.66c0,.84-.68,1.52-1.52,1.52Z"/>
    <path class="cls-1" d="M8.57,27.53h-1.66c-.84,0-1.52-.68-1.52-1.52s.68-1.52,1.52-1.52h1.66c.84,0,1.52.68,1.52,1.52s-.68,1.52-1.52,1.52Z"/>
    <path class="cls-1" d="M26.02,46.21c-.84,0-1.52-.68-1.52-1.52v-1.66c0-.84.68-1.52,1.52-1.52s1.52.68,1.52,1.52v1.66c0,.84-.68,1.52-1.52,1.52Z"/>
    <path class="cls-1" d="M44.69,27.1h-1.66c-.84,0-1.52-.68-1.52-1.52s.68-1.52,1.52-1.52h1.66c.84,0,1.52.68,1.52,1.52s-.68,1.52-1.52,1.52Z"/>
    <path class="cls-1" d="M25.59,27.32c-.13,0-.26-.02-.38-.05-.41-.11-.76-.38-.96-.75l-5.47-10.21c-.4-.74-.12-1.66.62-2.05.74-.4,1.66-.12,2.05.62l4.69,8.76,4.66-3c.71-.45,1.64-.25,2.1.46.45.71.25,1.64-.46,2.1l-6.04,3.88c-.25.16-.53.24-.82.24Z"/>
  </g>
</svg>