<?xml version="1.0" encoding="UTF-8"?>
<svg id="Camada_2" data-name="Camada 2" xmlns="http://www.w3.org/2000/svg" viewBox="0 0 91.45 86.19">
  <defs>
    <style>
      .cls-1 {
        fill: #333;
      }
    </style>
  </defs>
  <g id="_ëîé_1" data-name="‘ëîé_1">
    <g>
      <g>
        <path class="cls-1" d="M49.29,73.41h-8c-1.16,0-2.1-.94-2.1-2.1v-7.86h-7.86c-1.16,0-2.1-.94-2.1-2.1v-8c0-1.16.94-2.1,2.1-2.1h7.86v-7.86c0-1.16.94-2.1,2.1-2.1h8c1.16,0,2.1.94,2.1,2.1v7.86h7.86c1.16,0,2.1.94,2.1,2.1v8c0,1.16-.94,2.1-2.1,2.1h-7.86v7.86c0,1.16-.94,2.1-2.1,2.1ZM42.23,70.37h6.12v-7.86c0-1.16.94-2.1,2.1-2.1h7.86v-6.12h-7.86c-1.16,0-2.1-.94-2.1-2.1v-7.86h-6.12v7.86c0,1.16-.94,2.1-2.1,2.1h-7.86v6.12h7.86c1.16,0,2.1.94,2.1,2.1v7.86ZM59.25,54.29h0,0Z"/>
        <path class="cls-1" d="M83.67,86.19H7.78c-4.29,0-7.78-3.49-7.78-7.78v-42.12c0-4.29,3.49-7.78,7.78-7.78h34.91v-4.75c0-4.29,3.49-7.78,7.78-7.78h33.19c4.29,0,7.78,3.49,7.78,7.78v54.65c0,4.29-3.49,7.78-7.78,7.78ZM7.78,31.54c-2.62,0-4.75,2.13-4.75,4.75v42.12c0,2.62,2.13,4.75,4.75,4.75h75.89c2.62,0,4.75-2.13,4.75-4.75V23.76c0-2.62-2.13-4.75-4.75-4.75h-33.19c-2.62,0-4.75,2.13-4.75,4.75v6.26c0,.84-.68,1.52-1.52,1.52H7.78Z"/>
      </g>
      <path class="cls-1" d="M7.48,24.68c-.84,0-1.52-.68-1.52-1.52V3.43c0-1.89,1.54-3.43,3.43-3.43h72.67c1.89,0,3.43,1.54,3.43,3.43v7.21c0,.84-.68,1.52-1.52,1.52s-1.52-.68-1.52-1.52V3.43c0-.22-.18-.39-.39-.39H9.39c-.22,0-.39.18-.39.39v19.73c0,.84-.68,1.52-1.52,1.52Z"/>
    </g>
  </g>
</svg>