<?xml version="1.0" encoding="UTF-8"?>
<svg id="Camada_2" data-name="Camada 2" xmlns="http://www.w3.org/2000/svg" viewBox="0 0 112.32 95">
  <defs>
    <style>
      .cls-1 {
        fill: #333;
      }
    </style>
  </defs>
  <g id="_ëîé_1" data-name="‘ëîé_1">
    <g>
      <g>
        <path class="cls-1" d="M99.52,80.44H5.6c-3.09,0-5.6-2.51-5.6-5.6V13.39c0-3.09,2.51-5.6,5.6-5.6h9.48c.84,0,1.52.68,1.52,1.52s-.68,1.52-1.52,1.52H5.6c-1.41,0-2.57,1.15-2.57,2.57v61.45c0,1.41,1.15,2.56,2.57,2.56h93.91c1.41,0,2.57-1.15,2.57-2.56V29.76c0-.84.68-1.52,1.52-1.52s1.52.68,1.52,1.52v45.08c0,3.09-2.51,5.6-5.6,5.6Z"/>
        <path class="cls-1" d="M60.94,95h-16.77c-.84,0-1.52-.68-1.52-1.52v-14.56c0-.84.68-1.52,1.52-1.52h16.77c.84,0,1.52.68,1.52,1.52v14.56c0,.84-.68,1.52-1.52,1.52ZM45.69,91.96h13.74v-11.52h-13.74v11.52Z"/>
        <path class="cls-1" d="M72.15,95h-39.18c-.84,0-1.52-.68-1.52-1.52s.68-1.52,1.52-1.52h39.18c.84,0,1.52.68,1.52,1.52s-.68,1.52-1.52,1.52Z"/>
      </g>
      <g>
        <path class="cls-1" d="M46.82,33.61h-6.91c-.84,0-1.52-.68-1.52-1.52v-6h-6c-.84,0-1.52-.68-1.52-1.52v-6.91c0-.84.68-1.52,1.52-1.52h6v-6c0-.84.68-1.52,1.52-1.52h6.91c.84,0,1.52.68,1.52,1.52v6h6c.84,0,1.52.68,1.52,1.52v6.91c0,.84-.68,1.52-1.52,1.52h-6v.98c0,.84-.68,1.52-1.52,1.52s-1.52-.68-1.52-1.52v-2.5c0-.84.68-1.52,1.52-1.52h6v-3.88h-6c-.84,0-1.52-.68-1.52-1.52v-6h-3.88v6c0,.84-.68,1.52-1.52,1.52h-6v3.88h6c.84,0,1.52.68,1.52,1.52v6h5.39c.84,0,1.52.68,1.52,1.52s-.68,1.52-1.52,1.52Z"/>
        <g>
          <g>
            <path class="cls-1" d="M64.63,50.58c-.4,0-.78-.16-1.07-.44-.38-.38-.53-.93-.4-1.45l.07-.26c1.5-5.81,4.54-11.13,8.79-15.37l27.63-27.63c.59-.59,1.55-.59,2.15,0l5.25,5.25c.62.61.95,1.43.95,2.3s-.34,1.69-.95,2.3l-26.4,26.4c-4.24,4.24-9.56,7.28-15.37,8.78h0l-.26.07c-.13.03-.25.05-.38.05ZM100.72,8.63l-26.56,26.56c-3.28,3.28-5.76,7.25-7.28,11.61,4.36-1.51,8.34-4,11.61-7.28l26.4-26.4c.05-.05.07-.12.07-.16s-.01-.1-.07-.16l-4.18-4.18Z"/>
            <path class="cls-1" d="M109.69,10.05c-.39,0-.78-.15-1.07-.44-.59-.59-.59-1.55,0-2.15l.47-.47-2.39-2.39-.47.47c-.59.59-1.56.59-2.15,0-.59-.59-.59-1.55,0-2.15l.81-.81c.96-.96,2.65-.97,3.62,0l3.07,3.07c1,1,1,2.62,0,3.62l-.81.81c-.3.3-.68.44-1.07.44Z"/>
            <path class="cls-1" d="M85.86,14.56c-.39,0-.78-.15-1.07-.44-.59-.59-.59-1.55,0-2.15l8.76-8.77c1.66-1.66,4.37-1.66,6.03,0l2.74,2.74c.59.59.59,1.55,0,2.15-.59.59-1.55.59-2.15,0l-2.74-2.74c-.48-.48-1.26-.48-1.74,0l-8.76,8.76c-.3.3-.68.44-1.07.44Z"/>
            <path class="cls-1" d="M77.09,37.15c-.39,0-.78-.15-1.07-.44l-2.51-2.51c-.59-.59-.59-1.55,0-2.15.59-.59,1.55-.59,2.15,0l2.51,2.51c.59.59.59,1.55,0,2.15-.3.3-.68.44-1.07.44Z"/>
          </g>
          <path class="cls-1" d="M84.87,70.84c-.84,0-1.52-.68-1.52-1.52s.68-1.52,1.52-1.52c3.5,0,6.34-2.85,6.34-6.34v-1.21h-50.22v1.21c0,5.17-4.21,9.38-9.38,9.38s-9.38-4.21-9.38-9.38V1.52c0-.84.68-1.52,1.52-1.52h53.25c.84,0,1.52.68,1.52,1.52v19.63c0,.84-.68,1.52-1.52,1.52s-1.52-.68-1.52-1.52V3.04H25.28v58.42c0,3.5,2.85,6.34,6.34,6.34s6.34-2.85,6.34-6.34v-2.73c0-.84.68-1.52,1.52-1.52h53.25c.84,0,1.52.68,1.52,1.52v2.73c0,5.17-4.21,9.38-9.38,9.38Z"/>
          <path class="cls-1" d="M84.87,70.84H31.62c-.84,0-1.52-.68-1.52-1.52s.68-1.52,1.52-1.52h53.25c.84,0,1.52.68,1.52,1.52s-.68,1.52-1.52,1.52Z"/>
        </g>
        <path class="cls-1" d="M56.64,41.51h-25.02c-.84,0-1.52-.68-1.52-1.52s.68-1.52,1.52-1.52h25.02c.84,0,1.52.68,1.52,1.52s-.68,1.52-1.52,1.52Z"/>
        <path class="cls-1" d="M54.27,49.4h-22.65c-.84,0-1.52-.68-1.52-1.52s.68-1.52,1.52-1.52h22.65c.84,0,1.52.68,1.52,1.52s-.68,1.52-1.52,1.52Z"/>
      </g>
    </g>
  </g>
</svg>