<?xml version="1.0" encoding="UTF-8"?>
<svg id="Camada_2" data-name="Camada 2" xmlns="http://www.w3.org/2000/svg" viewBox="0 0 100.7 90.85">
  <defs>
    <style>
      .cls-1 {
        fill: #333;
      }
    </style>
  </defs>
  <g id="_ëîé_1" data-name="‘ëîé_1">
    <g>
      <path class="cls-1" d="M70.12,90.85H1.52c-.84,0-1.52-.68-1.52-1.52V1.52C0,.68.68,0,1.52,0h68.61c.84,0,1.52.68,1.52,1.52v87.81c0,.84-.68,1.52-1.52,1.52ZM3.04,87.81h65.57V3.04H3.04v84.78Z"/>
      <g>
        <g>
          <g>
            <path class="cls-1" d="M20.98,29.61c-5.01,0-9.24-3.9-9.57-8.97-.35-5.28,3.66-9.86,8.94-10.21,1.72-.11,3.43.24,4.96,1.01.75.38,1.05,1.29.67,2.04-.38.75-1.29,1.05-2.04.67-1.04-.53-2.22-.77-3.39-.69-1.75.12-3.35.9-4.5,2.22-1.16,1.32-1.73,3.01-1.61,4.76.24,3.61,3.37,6.36,6.98,6.12,2.56-.17,4.8-1.83,5.71-4.24.3-.78,1.17-1.18,1.96-.88.78.3,1.18,1.17.88,1.96-1.33,3.52-4.6,5.95-8.35,6.19-.21.01-.43.02-.64.02Z"/>
            <path class="cls-1" d="M22.25,23.72c-.38,0-.75-.14-1.04-.42l-4.4-4.18c-.61-.58-.63-1.54-.06-2.15.58-.61,1.54-.63,2.15-.06l3.34,3.17,6.85-6.71c.6-.59,1.56-.58,2.15.02.59.6.58,1.56-.02,2.15l-7.89,7.74c-.3.29-.68.43-1.06.43Z"/>
          </g>
          <g>
            <path class="cls-1" d="M20.98,55.02c-5.01,0-9.24-3.9-9.57-8.97-.35-5.28,3.66-9.86,8.94-10.21,1.72-.11,3.43.24,4.96,1.01.75.38,1.05,1.29.67,2.04-.38.75-1.29,1.05-2.04.67-1.04-.53-2.22-.77-3.39-.69-1.75.12-3.35.9-4.5,2.22-1.16,1.32-1.73,3.01-1.61,4.76.24,3.61,3.37,6.36,6.98,6.12,2.56-.17,4.8-1.83,5.71-4.24.3-.78,1.17-1.18,1.96-.88.78.3,1.18,1.17.88,1.96-1.33,3.52-4.6,5.95-8.35,6.19-.21.01-.43.02-.64.02Z"/>
            <path class="cls-1" d="M22.25,49.13c-.38,0-.75-.14-1.04-.42l-4.4-4.18c-.61-.58-.63-1.54-.06-2.15.58-.61,1.54-.63,2.15-.06l3.34,3.17,6.85-6.71c.6-.59,1.56-.58,2.15.02.59.6.58,1.56-.02,2.15l-7.89,7.74c-.3.29-.68.43-1.06.43Z"/>
          </g>
          <g>
            <path class="cls-1" d="M20.98,80.43c-5.01,0-9.24-3.9-9.57-8.97-.35-5.28,3.66-9.86,8.94-10.21,1.71-.11,3.43.24,4.96,1.01.75.38,1.05,1.29.67,2.04-.38.75-1.29,1.05-2.04.67-1.04-.53-2.22-.76-3.39-.69-3.61.24-6.35,3.37-6.12,6.98.24,3.61,3.37,6.36,6.98,6.12,2.56-.17,4.8-1.83,5.71-4.24.3-.78,1.17-1.18,1.96-.88.78.3,1.18,1.17.88,1.96-1.33,3.52-4.6,5.95-8.35,6.19-.21.01-.43.02-.64.02Z"/>
            <path class="cls-1" d="M22.25,74.54c-.38,0-.75-.14-1.04-.42l-4.4-4.18c-.61-.58-.63-1.54-.06-2.15.58-.61,1.54-.63,2.15-.06l3.34,3.17,6.85-6.71c.6-.59,1.56-.58,2.15.02.59.6.58,1.56-.02,2.15l-7.89,7.74c-.3.29-.68.43-1.06.43Z"/>
          </g>
        </g>
        <g>
          <path class="cls-1" d="M58.73,25.57h-22.12c-.84,0-1.52-.68-1.52-1.52s.68-1.52,1.52-1.52h22.12c.84,0,1.52.68,1.52,1.52s-.68,1.52-1.52,1.52Z"/>
          <path class="cls-1" d="M50.21,17.49h-13.6c-.84,0-1.52-.68-1.52-1.52s.68-1.52,1.52-1.52h13.6c.84,0,1.52.68,1.52,1.52s-.68,1.52-1.52,1.52Z"/>
        </g>
        <g>
          <path class="cls-1" d="M58.73,50.98h-22.12c-.84,0-1.52-.68-1.52-1.52s.68-1.52,1.52-1.52h22.12c.84,0,1.52.68,1.52,1.52s-.68,1.52-1.52,1.52Z"/>
          <path class="cls-1" d="M50.21,42.9h-13.6c-.84,0-1.52-.68-1.52-1.52s.68-1.52,1.52-1.52h13.6c.84,0,1.52.68,1.52,1.52s-.68,1.52-1.52,1.52Z"/>
        </g>
        <g>
          <path class="cls-1" d="M58.73,76.39h-22.12c-.84,0-1.52-.68-1.52-1.52s.68-1.52,1.52-1.52h22.12c.84,0,1.52.68,1.52,1.52s-.68,1.52-1.52,1.52Z"/>
          <path class="cls-1" d="M50.21,68.31h-13.6c-.84,0-1.52-.68-1.52-1.52s.68-1.52,1.52-1.52h13.6c.84,0,1.52.68,1.52,1.52s-.68,1.52-1.52,1.52Z"/>
        </g>
      </g>
      <path class="cls-1" d="M83.11,73.63c-.09,0-.17,0-.26-.02-.47-.08-.88-.38-1.09-.81l-4.3-8.52c-.15-.29-.2-.63-.14-.95l9.18-50.96c.07-.4.3-.75.63-.98.33-.23.74-.32,1.13-.25l11.19,2.02c.82.15,1.37.94,1.22,1.76l-9.18,50.96c-.06.32-.22.61-.45.83l-6.89,6.51c-.28.27-.66.41-1.04.41ZM80.4,63.35l3.16,6.25,5.05-4.77,8.82-48.98-8.21-1.48-8.82,48.97Z"/>
    </g>
  </g>
</svg>