<?xml version="1.0" encoding="UTF-8"?>
<svg id="Camada_2" data-name="Camada 2" xmlns="http://www.w3.org/2000/svg" viewBox="0 0 110.4 89.27">
  <defs>
    <style>
      .cls-1 {
        fill: #333;
      }
    </style>
  </defs>
  <g id="_ëîé_1" data-name="‘ëîé_1">
    <g>
      <g>
        <g>
          <g>
            <path class="cls-1" d="M82.85,72.85c-.77,0-1.43-.58-1.51-1.37l-1.86-18.45c-.46-4.58-3.95-8.29-8.49-9.03l-10.82-1.77-7.98,7.98c-.57.57-1.58.57-2.15,0l-7.98-7.98-10.82,1.77c-4.54.74-8.03,4.46-8.49,9.03l-1.86,18.45c-.08.83-.83,1.44-1.66,1.36-.83-.08-1.44-.83-1.36-1.66l1.86-18.45c.6-5.94,5.13-10.76,11.02-11.72l11.59-1.89c.48-.08.97.08,1.32.43l7.45,7.46,7.45-7.46c.35-.35.84-.51,1.32-.43l11.59,1.89c5.89.96,10.42,5.78,11.02,11.72l1.86,18.45c.08.83-.52,1.58-1.36,1.66-.05,0-.1,0-.15,0Z"/>
            <path class="cls-1" d="M42.59,42.13c-.2,0-.4-.04-.6-.12-.77-.33-1.13-1.22-.8-1.99l1.23-2.87c.33-.77,1.22-1.13,1.99-.8.77.33,1.13,1.22.8,1.99l-1.23,2.87c-.25.58-.81.92-1.4.92Z"/>
            <path class="cls-1" d="M59.64,42.13c-.59,0-1.15-.35-1.4-.92l-1.23-2.87c-.33-.77.03-1.66.8-1.99.77-.33,1.66.03,1.99.8l1.23,2.87c.33.77-.03,1.66-.8,1.99-.19.08-.4.12-.6.12Z"/>
          </g>
          <path class="cls-1" d="M51.12,36.91c-6.89,0-11.15-6.23-12.82-11.85-1.92-1.08-2.05-3.2-2.1-3.95l-.12-1.94c-.12-1.92.4-3.32,1.56-4.18-.06-2.79.17-10.27,4.28-12.28.02-.04.03-.07.05-.11.63-1.31,1.59-2.1,4.87-2.47,4.08-.47,9.76.33,12.71,2.75l.11.09c1.76,1.43,4.97,4.06,4.92,12,1.17.86,1.7,2.27,1.57,4.19l-.12,1.94c-.05.81-.18,2.81-1.99,3.89-1.6,5.89-5.76,11.91-12.93,11.91ZM49.15,3.04c-.67,0-1.33.03-1.97.11-2.24.26-2.4.6-2.48.77-.18.37-.51,1.06-1.45,1.52-2.35,1.14-2.73,7.44-2.55,10.32.04.65-.34,1.26-.95,1.51-.33.13-.74.3-.65,1.72l.12,1.94c.08,1.27.38,1.46.82,1.61.49.16.86.56.99,1.06,1.25,4.75,4.63,10.29,10.09,10.29,7.16,0,9.58-7.87,10.16-10.29.12-.5.48-.91.97-1.08.36-.13.68-.24.76-1.59l.12-1.94c.09-1.42-.32-1.59-.65-1.72-.59-.24-.97-.82-.95-1.46.26-7.16-2.17-9.15-3.79-10.47l-.11-.09c-1.61-1.32-5.14-2.19-8.48-2.19Z"/>
          <path class="cls-1" d="M62.61,11.79c-.69,0-1.31-.47-1.48-1.17-.12-.52-.39-.87-.86-1.14-1.63-.93-5.27-.66-9.72.73-4.23,1.32-7.4,1.23-9.42-.25-1.96-1.45-2.02-3.58-2.02-3.82,0-.84.68-1.52,1.52-1.52h0c.83,0,1.5.67,1.52,1.49,0,.07.06.89.82,1.42.68.48,2.46,1.09,6.68-.22,3.82-1.19,9.02-2.24,12.12-.47,1.2.68,2,1.75,2.31,3.07.19.82-.31,1.63-1.13,1.83-.12.03-.24.04-.35.04ZM42.16,6.15h0,0Z"/>
        </g>
        <path class="cls-1" d="M35.18,58.44c-.79,0-1.46-.61-1.51-1.41-.71-10.49,3.36-16.29,3.54-16.53.49-.68,1.44-.84,2.12-.35.68.49.84,1.43.35,2.11-.04.06-3.61,5.25-2.98,14.56.06.84-.58,1.56-1.41,1.62-.03,0-.07,0-.1,0Z"/>
        <path class="cls-1" d="M66.87,54.11h-.02c-.84-.01-1.51-.7-1.5-1.54.08-6.6-2.36-10.31-2.38-10.34-.47-.69-.29-1.64.4-2.11.69-.47,1.63-.3,2.1.39.12.18,3.01,4.46,2.92,12.1-.01.83-.69,1.5-1.52,1.5Z"/>
        <path class="cls-1" d="M35.18,68.97c-2.63,0-4.77-2.14-4.77-4.77s2.14-4.77,4.77-4.77,4.77,2.14,4.77,4.77-2.14,4.77-4.77,4.77ZM35.18,62.46c-.96,0-1.74.78-1.74,1.74s.78,1.74,1.74,1.74,1.74-.78,1.74-1.74-.78-1.74-1.74-1.74Z"/>
        <path class="cls-1" d="M62.17,69.69h-2.02c-.52,0-1.01-.27-1.28-.71-1.21-1.93-1.85-4.21-1.85-6.6,0-6.23,4.43-11.3,9.87-11.3s9.87,5.07,9.87,11.3c0,2.23-.56,4.38-1.63,6.23-.27.47-.77.76-1.31.76h-1.98c-.84,0-1.52-.68-1.52-1.52s.68-1.52,1.52-1.52h1.06c.55-1.21.83-2.56.83-3.95,0-4.56-3.06-8.26-6.83-8.26s-6.83,3.71-6.83,8.26c0,1.53.34,2.99.99,4.27h1.14c.84,0,1.52.68,1.52,1.52s-.68,1.52-1.52,1.52Z"/>
      </g>
      <g>
        <path class="cls-1" d="M100.72,78.57H1.52c-.84,0-1.52-.68-1.52-1.52V16.81c0-.84.68-1.52,1.52-1.52h28.76c.84,0,1.52.68,1.52,1.52s-.68,1.52-1.52,1.52H3.04v57.21h96.17v-42.97c0-.84.68-1.52,1.52-1.52s1.52.68,1.52,1.52v44.49c0,.84-.68,1.52-1.52,1.52Z"/>
        <path class="cls-1" d="M59.21,89.27h-16.19c-.84,0-1.52-.68-1.52-1.52v-5.64c0-.84.68-1.52,1.52-1.52s1.52.68,1.52,1.52v4.12h13.16v-4.12c0-.84.68-1.52,1.52-1.52s1.52.68,1.52,1.52v5.64c0,.84-.68,1.52-1.52,1.52Z"/>
        <path class="cls-1" d="M65.57,89.27h-28.9c-.84,0-1.52-.68-1.52-1.52s.68-1.52,1.52-1.52h28.9c.84,0,1.52.68,1.52,1.52s-.68,1.52-1.52,1.52Z"/>
      </g>
      <path class="cls-1" d="M78.62,32.98c-.54,0-1.07-.13-1.57-.39-1.11-.58-1.81-1.73-1.81-2.99v-2.17h-.57c-2.18,0-3.96-1.78-3.96-3.96V5.78c0-2.18,1.78-3.96,3.96-3.96h31.75c2.18,0,3.96,1.78,3.96,3.96v17.7c0,2.18-1.78,3.96-3.96,3.96h-18.75l-7.15,4.94c-.58.4-1.25.6-1.92.6ZM74.68,4.85c-.51,0-.93.42-.93.93v17.7c0,.51.41.93.93.93h2.08c.84,0,1.52.68,1.52,1.52v3.69c0,.17.1.26.18.3.08.04.21.07.35-.02l7.54-5.21c.25-.18.56-.27.86-.27h19.22c.51,0,.93-.42.93-.93V5.78c0-.51-.42-.93-.93-.93h-31.75Z"/>
    </g>
  </g>
</svg>