<?xml version="1.0" encoding="UTF-8"?>
<svg id="Camada_2" data-name="Camada 2" xmlns="http://www.w3.org/2000/svg" viewBox="0 0 116.97 70.94">
  <defs>
    <style>
      .cls-1 {
        fill: #333;
      }
    </style>
  </defs>
  <g id="_ëîé_1" data-name="‘ëîé_1">
    <g>
      <g>
        <g>
          <path class="cls-1" d="M25.78,70.94c-7.5,0-13.59-6.1-13.59-13.6s6.1-13.59,13.59-13.59,13.6,6.1,13.6,13.59-6.1,13.6-13.6,13.6ZM25.78,46.79c-5.82,0-10.56,4.74-10.56,10.56s4.74,10.56,10.56,10.56,10.56-4.74,10.56-10.56-4.74-10.56-10.56-10.56Z"/>
          <path class="cls-1" d="M25.78,64.05c-3.7,0-6.7-3.01-6.7-6.7s3.01-6.7,6.7-6.7,6.7,3.01,6.7,6.7-3.01,6.7-6.7,6.7ZM25.78,53.68c-2.02,0-3.67,1.64-3.67,3.67s1.64,3.67,3.67,3.67,3.67-1.64,3.67-3.67-1.64-3.67-3.67-3.67Z"/>
        </g>
        <g>
          <path class="cls-1" d="M96.78,70.94c-7.5,0-13.59-6.1-13.59-13.6s6.1-13.59,13.59-13.59,13.6,6.1,13.6,13.59-6.1,13.6-13.6,13.6ZM96.78,46.79c-5.82,0-10.56,4.74-10.56,10.56s4.74,10.56,10.56,10.56,10.56-4.74,10.56-10.56-4.74-10.56-10.56-10.56Z"/>
          <path class="cls-1" d="M96.78,64.05c-3.7,0-6.7-3.01-6.7-6.7s3.01-6.7,6.7-6.7,6.7,3.01,6.7,6.7-3.01,6.7-6.7,6.7ZM96.78,53.68c-2.02,0-3.67,1.64-3.67,3.67s1.64,3.67,3.67,3.67,3.67-1.64,3.67-3.67-1.64-3.67-3.67-3.67Z"/>
        </g>
      </g>
      <path class="cls-1" d="M84.7,58.87h-46.85c-.84,0-1.52-.68-1.52-1.52s.68-1.52,1.52-1.52h46.85c.84,0,1.52.68,1.52,1.52s-.68,1.52-1.52,1.52Z"/>
      <path class="cls-1" d="M110.76,58.87h-1.9c-.84,0-1.52-.68-1.52-1.52s.68-1.52,1.52-1.52h1.9c1.75,0,3.18-1.42,3.18-3.18v-11.73c0-3.08-1.65-5.96-4.3-7.51l-14.15-8.3c-.28-.17-.51-.42-.63-.72l-7.12-17.06c-1.09-2.61-3.62-4.3-6.45-4.3H8.09c-2.79,0-5.05,2.27-5.05,5.05v42.73c0,2.76,2.25,5.01,5.01,5.01.84,0,1.52.68,1.52,1.52s-.68,1.52-1.52,1.52c-4.44,0-8.05-3.61-8.05-8.05V8.09C0,3.63,3.63,0,8.09,0h73.19c4.06,0,7.69,2.42,9.25,6.16l6.93,16.59,13.71,8.04c3.58,2.1,5.8,5.98,5.8,10.13v11.73c0,3.43-2.79,6.21-6.21,6.21Z"/>
      <path class="cls-1" d="M45.79,40.42h-7.84c-.84,0-1.52-.68-1.52-1.52v-7.46h-7.46c-.84,0-1.52-.68-1.52-1.52v-7.84c0-.84.68-1.52,1.52-1.52h7.46v-7.46c0-.84.68-1.52,1.52-1.52h7.84c.84,0,1.52.68,1.52,1.52v7.46h7.46c.84,0,1.52.68,1.52,1.52v7.84c0,.84-.68,1.52-1.52,1.52h-7.46v7.46c0,.84-.68,1.52-1.52,1.52ZM39.47,37.38h4.8v-7.46c0-.84.68-1.52,1.52-1.52h7.46v-4.8h-7.46c-.84,0-1.52-.68-1.52-1.52v-7.46h-4.8v7.46c0,.84-.68,1.52-1.52,1.52h-7.46v4.8h7.46c.84,0,1.52.68,1.52,1.52v7.46Z"/>
      <path class="cls-1" d="M96.25,25.32h-23.31c-.72,0-1.34-.5-1.49-1.2l-3.16-14.94c-.17-.82.35-1.63,1.17-1.8.82-.17,1.63.35,1.8,1.17l2.9,13.73h22.08c.84,0,1.52.68,1.52,1.52s-.68,1.52-1.52,1.52Z"/>
    </g>
  </g>
</svg>